<svg width="81" height="55" viewBox="0 0 81 55" fill="none" xmlns="http://www.w3.org/2000/svg">
<g clip-path="url(#clip0_1_16)">
<rect width="81" height="55" fill="#0A0A0A"/>
<path d="M11.9539 49.24C11.0472 49.24 10.3006 48.9467 9.71391 48.36C9.15391 47.7733 8.87391 47.0267 8.87391 46.12V32.32C8.87391 31.5467 8.51391 31.16 7.79391 31.16H5.75391V26.84H7.79391C8.51391 26.84 8.87391 26.4533 8.87391 25.68V11.88C8.87391 10.9733 9.15391 10.2267 9.71391 9.64C10.3006 9.05333 11.0472 8.76 11.9539 8.76H15.8339V11.64H13.0739C12.3539 11.64 11.9939 12.04 11.9939 12.84V25.64C11.9939 26.5467 11.7006 27.2933 11.1139 27.88C10.5539 28.4667 9.80724 28.76 8.87391 28.76H8.39391V29.24H8.87391C9.80724 29.24 10.5539 29.5333 11.1139 30.12C11.7006 30.7067 11.9939 31.4533 11.9939 32.36V45.16C11.9939 45.96 12.3539 46.36 13.0739 46.36H15.8339V49.24H11.9539Z" fill="white"/>
<path d="M39.3261 45V41.84H36.9261V20.12H39.3261V17H30.1261C26.6861 17 24.1661 17.84 22.5661 19.52C20.9394 21.1733 20.1261 23.8 20.1261 27.4V34.6C20.1261 38.2 20.9394 40.84 22.5661 42.52C24.1661 44.1733 26.6861 45 30.1261 45H39.3261ZM33.5661 41.88H30.6061C28.9794 41.88 27.6461 41.6667 26.6061 41.24C25.5394 40.7867 24.7528 40.0133 24.2461 38.92C23.7394 37.8267 23.4861 36.3067 23.4861 34.36V27.64C23.4861 25.6933 23.7394 24.1733 24.2461 23.08C24.7528 21.9867 25.5394 21.2267 26.6061 20.8C27.6461 20.3467 28.9794 20.12 30.6061 20.12H33.5661V41.88Z" fill="white"/>
<path d="M40.6739 45V41.84H43.0739V20.12H40.6739V17H49.8739C53.3139 17 55.8339 17.84 57.4339 19.52C59.0606 21.1733 59.8739 23.8 59.8739 27.4V34.6C59.8739 38.2 59.0606 40.84 57.4339 42.52C55.8339 44.1733 53.3139 45 49.8739 45H40.6739ZM46.4339 41.88H49.3939C51.0206 41.88 52.3539 41.6667 53.3939 41.24C54.4606 40.7867 55.2472 40.0133 55.7539 38.92C56.2606 37.8267 56.5139 36.3067 56.5139 34.36V27.64C56.5139 25.6933 56.2606 24.1733 55.7539 23.08C55.2472 21.9867 54.4606 21.2267 53.3939 20.8C52.3539 20.3467 51.0206 20.12 49.3939 20.12H46.4339V41.88Z" fill="white"/>
<path d="M64.1539 51.24V48.36H66.9139C67.6339 48.36 67.9939 47.96 67.9939 47.16V34.36C67.9939 33.4533 68.2739 32.7067 68.8339 32.12C69.4206 31.5333 70.1806 31.24 71.1139 31.24H71.5939V30.76H71.1139C70.1806 30.76 69.4206 30.4667 68.8339 29.88C68.2739 29.2933 67.9939 28.5467 67.9939 27.64V14.84C67.9939 14.04 67.6339 13.64 66.9139 13.64H64.1539V10.76H68.0339C68.9406 10.76 69.6739 11.0533 70.2339 11.64C70.8206 12.2267 71.1139 12.9733 71.1139 13.88V27.68C71.1139 28.4533 71.4739 28.84 72.1939 28.84H74.2339V33.16H72.1939C71.4739 33.16 71.1139 33.5467 71.1139 34.32V48.12C71.1139 49.0267 70.8206 49.7733 70.2339 50.36C69.6739 50.9467 68.9406 51.24 68.0339 51.24H64.1539Z" fill="white"/>
</g>
<defs>
<clipPath id="clip0_1_16">
<rect width="81" height="55" fill="white"/>
</clipPath>
</defs>
</svg>
