<svg xmlns="http://www.w3.org/2000/svg" width="400" height="400" fill="none" viewBox="0 0 400 400"><rect width="400" height="400" fill="#0a0a0a" rx="200"/><path fill="#fff" d="M192.7 238v-7.9h-6v-54.3h6V168h-23q-12.9 0-18.9 6.3-6.1 6.2-6.1 19.7v18q0 13.5 6.1 19.8 6 6.2 18.9 6.2zm-14.4-7.8h-7.4q-6.1 0-10-1.6-4-1.7-5.9-5.8t-1.9-11.4v-16.8q0-7.3 1.9-11.4t5.9-5.7q3.9-1.7 10-1.7h7.4zm29 7.8v-7.9h6v-54.3h-6V168h23q12.9 0 18.9 6.3 6.1 6.2 6.1 19.7v18q0 13.5-6.1 19.8-6 6.2-18.9 6.2zm14.4-7.8h7.4q6.1 0 10-1.6 4-1.7 5.9-5.8t1.9-11.4v-16.8q0-7.3-1.9-11.4t-5.9-5.7q-3.9-1.7-10-1.7h-7.4zm-97.2 23.4q-3.4 0-5.6-2.2-2.1-2.2-2.1-5.6v-34.5q0-2.9-2.7-2.9H109v-10.8h5.1q2.7 0 2.7-2.9v-34.5q0-3.4 2.1-5.6 2.2-2.2 5.6-2.2h9.7v7.2h-6.9q-2.7 0-2.7 3v32q0 3.4-2.2 5.6-2.1 2.2-5.6 2.2h-1.2v1.2h1.2q3.5 0 5.6 2.2 2.2 2.2 2.2 5.6v32q0 3 2.7 3h6.9v7.2zm142.5 0v-7.2h6.9q2.7 0 2.7-3v-32q0-3.4 2.1-5.6 2.2-2.2 5.7-2.2h1.2v-1.2h-1.2q-3.5 0-5.7-2.2-2.1-2.2-2.1-5.6v-32q0-3-2.7-3H267v-7.2h9.7q3.4 0 5.5 2.2 2.2 2.2 2.2 5.6v34.5q0 2.9 2.7 2.9h5.1v10.8h-5.1q-2.7 0-2.7 2.9v34.5q0 3.4-2.2 5.6-2.1 2.2-5.5 2.2z"/></svg>